erDiagram
    CLIENTE ||--o{ PEDIDO : realiza
    PEDIDO ||--|{ PEDIDO_ITEM : contem
    CARDAPIO_ITEM ||--o{ PEDIDO_ITEM : referencia
    PEDIDO ||--|| PAGAMENTO : liquida
    PEDIDO ||--o| DOCUMENTO_FISCAL : emite
    PEDIDO ||--o| DESPACHO_ENTREGA : encaminha
    CAIXA_SESSAO ||--o{ PAGAMENTO : consolida
    USUARIO ||--o{ CAIXA_SESSAO : opera
    USUARIO ||--o{ PEDIDO : lanca

    USUARIO {
        uuid id PK
        string nome
        string login UK
        string senha_hash
        string papel "ATENDENTE | ADMIN"
    }

    CLIENTE {
        uuid id PK
        string nome
        string telefone UK
        string endereco
    }

    CARDAPIO_ITEM {
        uuid id PK
        string nome
        string descricao
        decimal preco
        string categoria
        boolean disponivel
    }

    PEDIDO {
        uuid id PK
        uuid cliente_id FK
        uuid atendente_id FK "nullable para pedidos web"
        int numero_diario
        string origem_canal "WEB | WHATSAPP | BALCAO"
        string status "CRIADO | EM_PREPARO | PRONTO | ENTREGUE | CANCELADO"
        decimal taxa_entrega
        decimal valor_total
        string chave_idempotencia UK
        timestamp criado_em
    }

    PEDIDO_ITEM {
        uuid id PK
        uuid pedido_id FK
        uuid cardapio_item_id FK
        string nome_snapshot
        int quantidade
        decimal preco_unitario
        string observacoes
    }

    PAGAMENTO {
        uuid id PK
        uuid pedido_id FK
        uuid caixa_sessao_id FK
        string metodo "PIX | CARTAO_DEBITO | CARTAO_CREDITO | DINHEIRO"
        decimal valor_pago
        string status_transacao
        timestamp registrado_em
    }

    DOCUMENTO_FISCAL {
        uuid id PK
        uuid pedido_id FK
        string chave_acesso UK
        string numero_nfce
        string status "AUTORIZADA | REJEITADA | PENDENTE"
        timestamp emitido_em
    }

    DESPACHO_ENTREGA {
        uuid id PK
        uuid pedido_id FK
        string nome_motoboy
        string status "EM_ROTA | ENTREGUE"
        timestamp saida_em
        timestamp entrega_em
    }

    CAIXA_SESSAO {
        uuid id PK
        uuid operador_id FK
        timestamp abertura_em
        timestamp fechamento_em
        decimal saldo_inicial
        decimal total_entradas_declaradas
        decimal total_entradas_sistema
        decimal diferenca_apurada
        string justificativa_divergencia
    }
